#!OML:ASF E:\Steps\Project 1\Capture day 1\Session 2\Subject.ASF
:FULLY-SPECIFIED
:DEGREES
256
root 8.99601 15.4759 32.3626 -142.927 -0.897363 180.324
lowerback -9.967 -1.15086 -2.48789
upperback 0.418929 -1.27787 0.113922
thorax 6.09502 -0.722019 1.32623
lowerneck -1.26229 -4.04629 -1.06076
upperneck -24.2626 -2.10771 5.82447
head -7.10346 -0.296644 2.06581
rclavicle -7.7526e-015 -3.97569e-015
rhumerus -54.1815 -12.122 -63.8658
rradius 24.8154
rwrist 6.91338
rhand -6.5557 -48.4641
rfingers 7.12502
rthumb 19.2981 -77.5266
lclavicle -7.7526e-015 -3.97569e-015
lhumerus -55.8255 -19.2489 81.4316
lradius 38.0105
lwrist 6.99286
lhand -20.603 -15.5479
lfingers 7.12502
lthumb 5.75762 14.3539
rfemur -56.7796 6.64046 17.5601
rtibia 41.8315
rfoot -31.9636 -9.89537
rtoes -32.2691
lfemur -59.8264 -8.29906 -12.7576
ltibia 45.1008
lfoot -23.8588 2.80779
ltoes -41.332
257
root 8.99884 15.3734 32.3834 -141.824 -0.438981 180.498
lowerback -10.4214 -0.973531 -2.56945
upperback 0.419876 -1.02161 0.117689
thorax 6.34361 -0.602543 1.40911
lowerneck -1.12903 -4.19972 -1.03606
upperneck -25.0675 -2.18103 5.75602
head -7.39296 -0.275091 2.05012
rclavicle -5.96354e-016 -6.75868e-015
rhumerus -54.1576 -12.2924 -63.6978
rradius 24.7337
rwrist 7.09663
rhand -6.5032 -48.7753
rfingers 7.12502
rthumb 19.3486 -77.8327
lclavicle -5.96354e-016 -6.75868e-015
lhumerus -55.888 -19.2621 81.6044
lradius 38.0378
lwrist 7.01315
lhand -20.8272 -15.8256
lfingers 7.12502
lthumb 5.54123 14.0819
rfemur -59.1563 6.55393 17.6705
rtibia 43.7335
rfoot -32.5631 -9.51852
rtoes -32.7787
lfemur -61.9952 -7.49971 -12.7986
ltibia 46.9188
lfoot -24.4404 2.74985
ltoes -41.965
258
root 9.00364 15.2779 32.3914 -141.347 -0.471307 180.422
lowerback -10.2657 -0.986172 -2.67369
upperback 0.54209 -1.02836 0.2066
thorax 6.38909 -0.610114 1.56145
lowerneck -0.87729 -4.28707 -1.14382
upperneck -25.8518 -2.19155 5.67324
head -7.69923 -0.21725 2.05087
rclavicle 7.7526e-015 1.78906e-014
rhumerus -54.0907 -12.4485 -63.3563
rradius 24.4859
rwrist 7.46835
rhand -6.61669 -49.4376
rfingers 7.12502
rthumb 19.2394 -78.5059
lclavicle 7.7526e-015 1.78906e-014
lhumerus -55.9214 -19.0509 81.7829
lradius 37.9907
lwrist 7.15528
lhand -20.861 -15.6587
lfingers 7.12502
lthumb 5.5086 14.2497
rfemur -60.6975 6.11462 17.8348
rtibia 45.6296
rfoot -33.36 -9.26584
rtoes -32.8999
lfemur -63.4843 -7.23637 -12.9476
ltibia 48.6852
lfoot -24.9893 2.32808
ltoes -41.5434
259
root 9.00675 15.1751 32.3926 -140.933 -0.454815 180.509
lowerback -10.0839 -0.976366 -2.60526
upperback 0.597379 -1.02837 0.26412
thorax 6.34444 -0.607435 1.58532
lowerneck -0.595186 -4.36513 -1.12736
upperneck -26.3865 -2.22658 5.6612
head -7.92999 -0.210249 2.05478
rclavicle 8.94531e-015 7.55382e-015
rhumerus -54.1162 -12.9444 -62.7496
rradius 24.0387
rwrist 8.32902
rhand -6.84539 -49.5375
rfingers 7.12502
rthumb 19.0195 -78.6276
lclavicle 8.94531e-015 7.55382e-015
lhumerus -56.0772 -18.7128 81.7799
lradius 37.9475
lwrist 7.19601
lhand -20.7834 -15.9176
lfingers 7.12502
lthumb 5.58348 13.9889
rfemur -62.0973 5.96713 18.0499
rtibia 47.4189
rfoot -34.1327 -9.09626
rtoes -33.054
lfemur -64.9117 -6.83613 -13.0222
ltibia 50.4609
lfoot -25.3307 2.31854
ltoes -42.052
260
root 9.01335 15.0705 32.3956 -140.369 -0.540356 180.695
lowerback -10.0234 -0.987015 -2.4205
upperback 0.607529 -1.06865 0.322664
thorax 6.32026 -0.621291 1.53718
lowerneck -0.465403 -4.51256 -0.962614
upperneck -26.8388 -2.33252 5.72283
head -8.10683 -0.254282 2.05911
rclavicle -8.34896e-015 -5.56597e-015
rhumerus -54.0984 -13.2868 -62.4039
rradius 23.6601
rwrist 8.95065
rhand -6.85333 -49.2627
rfingers 7.12502
rthumb 19.0119 -78.3536
lclavicle -8.34896e-015 -5.56597e-015
lhumerus -56.3259 -18.3983 81.7424
lradius 37.9595
lwrist 6.91777
lhand -21.2979 -16.7347
lfingers 7.12502
lthumb 5.08668 13.1843
rfemur -63.6083 6.00099 18.3183
rtibia 49.1298
rfoot -34.8292 -9.01895
rtoes -32.5306
lfemur -66.5924 -6.32815 -12.9996
ltibia 52.4181
lfoot -25.5736 2.45863
ltoes -42.7653
